<svg aria-roledescription="gantt" role="graphics-document document" style="max-width: 784px; background-color: rgb(13, 17, 23);" viewBox="0 0 784 1584" xmlns:xlink="http://www.w3.org/1999/xlink" xmlns="http://www.w3.org/2000/svg" width="100%" id="my-svg"><style>#my-svg{font-family:"trebuchet ms",verdana,arial,sans-serif;font-size:16px;fill:#ccc;}@keyframes edge-animation-frame{from{stroke-dashoffset:0;}}@keyframes dash{to{stroke-dashoffset:0;}}#my-svg .edge-animation-slow{stroke-dasharray:9,5!important;stroke-dashoffset:900;animation:dash 50s linear infinite;stroke-linecap:round;}#my-svg .edge-animation-fast{stroke-dasharray:9,5!important;stroke-dashoffset:900;animation:dash 20s linear infinite;stroke-linecap:round;}#my-svg .error-icon{fill:#a44141;}#my-svg .error-text{fill:#ddd;stroke:#ddd;}#my-svg .edge-thickness-normal{stroke-width:1px;}#my-svg .edge-thickness-thick{stroke-width:3.5px;}#my-svg .edge-pattern-solid{stroke-dasharray:0;}#my-svg .edge-thickness-invisible{stroke-width:0;fill:none;}#my-svg .edge-pattern-dashed{stroke-dasharray:3;}#my-svg .edge-pattern-dotted{stroke-dasharray:2;}#my-svg .marker{fill:#8b949e;stroke:#8b949e;}#my-svg .marker.cross{stroke:#8b949e;}#my-svg svg{font-family:"trebuchet ms",verdana,arial,sans-serif;font-size:16px;}#my-svg p{margin:0;}#my-svg .mermaid-main-font{font-family:"trebuchet ms",verdana,arial,sans-serif;}#my-svg .exclude-range{fill:hsl(52.9411764706, 28.813559322%, 48.431372549%);}#my-svg .section{stroke:none;opacity:0.2;}#my-svg .section0{fill:hsl(52.9411764706, 28.813559322%, 58.431372549%);}#my-svg .section2{fill:#EAE8D9;}#my-svg .section1,#my-svg .section3{fill:#333;opacity:0.2;}#my-svg .sectionTitle0{fill:#F9FFFE;}#my-svg .sectionTitle1{fill:#F9FFFE;}#my-svg .sectionTitle2{fill:#F9FFFE;}#my-svg .sectionTitle3{fill:#F9FFFE;}#my-svg .sectionTitle{text-anchor:start;font-family:"trebuchet ms",verdana,arial,sans-serif;}#my-svg .grid .tick{stroke:lightgrey;opacity:0.8;shape-rendering:crispEdges;}#my-svg .grid .tick text{font-family:"trebuchet ms",verdana,arial,sans-serif;fill:#ccc;}#my-svg .grid path{stroke-width:0;}#my-svg .today{fill:none;stroke:#DB5757;stroke-width:2px;}#my-svg .task{stroke-width:2;}#my-svg .taskText{text-anchor:middle;font-family:"trebuchet ms",verdana,arial,sans-serif;}#my-svg .taskTextOutsideRight{fill:hsl(28.5714285714, 17.3553719008%, 86.2745098039%);text-anchor:start;font-family:"trebuchet ms",verdana,arial,sans-serif;}#my-svg .taskTextOutsideLeft{fill:hsl(28.5714285714, 17.3553719008%, 86.2745098039%);text-anchor:end;}#my-svg .task.clickable{cursor:pointer;}#my-svg .taskText.clickable{cursor:pointer;fill:#003163!important;font-weight:bold;}#my-svg .taskTextOutsideLeft.clickable{cursor:pointer;fill:#003163!important;font-weight:bold;}#my-svg .taskTextOutsideRight.clickable{cursor:pointer;fill:#003163!important;font-weight:bold;}#my-svg .taskText0,#my-svg .taskText1,#my-svg .taskText2,#my-svg .taskText3{fill:hsl(28.5714285714, 17.3553719008%, 86.2745098039%);}#my-svg .task0,#my-svg .task1,#my-svg .task2,#my-svg .task3{fill:hsl(180, 1.5873015873%, 35.3529411765%);stroke:#ffffff;}#my-svg .taskTextOutside0,#my-svg .taskTextOutside2{fill:lightgrey;}#my-svg .taskTextOutside1,#my-svg .taskTextOutside3{fill:lightgrey;}#my-svg .active0,#my-svg .active1,#my-svg .active2,#my-svg .active3{fill:#81B1DB;stroke:#ffffff;}#my-svg .activeText0,#my-svg .activeText1,#my-svg .activeText2,#my-svg .activeText3{fill:hsl(28.5714285714, 17.3553719008%, 86.2745098039%)!important;}#my-svg .done0,#my-svg .done1,#my-svg .done2,#my-svg .done3{stroke:grey;fill:lightgrey;stroke-width:2;}#my-svg .doneText0,#my-svg .doneText1,#my-svg .doneText2,#my-svg .doneText3{fill:hsl(28.5714285714, 17.3553719008%, 86.2745098039%)!important;}#my-svg .crit0,#my-svg .crit1,#my-svg .crit2,#my-svg .crit3{stroke:#E83737;fill:#E83737;stroke-width:2;}#my-svg .activeCrit0,#my-svg .activeCrit1,#my-svg .activeCrit2,#my-svg .activeCrit3{stroke:#E83737;fill:#81B1DB;stroke-width:2;}#my-svg .doneCrit0,#my-svg .doneCrit1,#my-svg .doneCrit2,#my-svg .doneCrit3{stroke:#E83737;fill:lightgrey;stroke-width:2;cursor:pointer;shape-rendering:crispEdges;}#my-svg .milestone{transform:rotate(45deg) scale(0.8,0.8);}#my-svg .milestoneText{font-style:italic;}#my-svg .doneCritText0,#my-svg .doneCritText1,#my-svg .doneCritText2,#my-svg .doneCritText3{fill:hsl(28.5714285714, 17.3553719008%, 86.2745098039%)!important;}#my-svg .activeCritText0,#my-svg .activeCritText1,#my-svg .activeCritText2,#my-svg .activeCritText3{fill:hsl(28.5714285714, 17.3553719008%, 86.2745098039%)!important;}#my-svg .titleText{text-anchor:middle;font-size:18px;fill:#F9FFFE;font-family:"trebuchet ms",verdana,arial,sans-serif;}#my-svg :root{--mermaid-font-family:"trebuchet ms",verdana,arial,sans-serif;}</style><g/><g text-anchor="middle" font-family="sans-serif" font-size="10" fill="none" transform="translate(75, 1534)" class="grid"><path d="M0.5,-1499V0.5H634.5V-1499" stroke="currentColor" class="domain"/><g transform="translate(0.5,0)" opacity="1" class="tick"><line y2="-1499" stroke="currentColor"/><text style="text-anchor: middle;" font-size="10" stroke="none" dy="1em" y="3" fill="#000"> Monday</text></g><g transform="translate(45.5,0)" opacity="1" class="tick"><line y2="-1499" stroke="currentColor"/><text style="text-anchor: middle;" font-size="10" stroke="none" dy="1em" y="3" fill="#000"> Monday</text></g><g transform="translate(91.5,0)" opacity="1" class="tick"><line y2="-1499" stroke="currentColor"/><text style="text-anchor: middle;" font-size="10" stroke="none" dy="1em" y="3" fill="#000"> Tuesday</text></g><g transform="translate(136.5,0)" opacity="1" class="tick"><line y2="-1499" stroke="currentColor"/><text style="text-anchor: middle;" font-size="10" stroke="none" dy="1em" y="3" fill="#000"> Tuesday</text></g><g transform="translate(181.5,0)" opacity="1" class="tick"><line y2="-1499" stroke="currentColor"/><text style="text-anchor: middle;" font-size="10" stroke="none" dy="1em" y="3" fill="#000"> Wednesday</text></g><g transform="translate(226.5,0)" opacity="1" class="tick"><line y2="-1499" stroke="currentColor"/><text style="text-anchor: middle;" font-size="10" stroke="none" dy="1em" y="3" fill="#000"> Wednesday</text></g><g transform="translate(272.5,0)" opacity="1" class="tick"><line y2="-1499" stroke="currentColor"/><text style="text-anchor: middle;" font-size="10" stroke="none" dy="1em" y="3" fill="#000"> Thursday</text></g><g transform="translate(317.5,0)" opacity="1" class="tick"><line y2="-1499" stroke="currentColor"/><text style="text-anchor: middle;" font-size="10" stroke="none" dy="1em" y="3" fill="#000"> Thursday</text></g><g transform="translate(362.5,0)" opacity="1" class="tick"><line y2="-1499" stroke="currentColor"/><text style="text-anchor: middle;" font-size="10" stroke="none" dy="1em" y="3" fill="#000"> Friday</text></g><g transform="translate(408.5,0)" opacity="1" class="tick"><line y2="-1499" stroke="currentColor"/><text style="text-anchor: middle;" font-size="10" stroke="none" dy="1em" y="3" fill="#000"> Friday</text></g><g transform="translate(453.5,0)" opacity="1" class="tick"><line y2="-1499" stroke="currentColor"/><text style="text-anchor: middle;" font-size="10" stroke="none" dy="1em" y="3" fill="#000"> Saturday</text></g><g transform="translate(498.5,0)" opacity="1" class="tick"><line y2="-1499" stroke="currentColor"/><text style="text-anchor: middle;" font-size="10" stroke="none" dy="1em" y="3" fill="#000"> Saturday</text></g><g transform="translate(543.5,0)" opacity="1" class="tick"><line y2="-1499" stroke="currentColor"/><text style="text-anchor: middle;" font-size="10" stroke="none" dy="1em" y="3" fill="#000"> Sunday</text></g><g transform="translate(589.5,0)" opacity="1" class="tick"><line y2="-1499" stroke="currentColor"/><text style="text-anchor: middle;" font-size="10" stroke="none" dy="1em" y="3" fill="#000"> Sunday</text></g><g transform="translate(634.5,0)" opacity="1" class="tick"><line y2="-1499" stroke="currentColor"/><text style="text-anchor: middle;" font-size="10" stroke="none" dy="1em" y="3" fill="#000"> Monday</text></g></g><g><rect class="section section0" height="28" width="746.5" y="48" x="0"/><rect class="section section1" height="28" width="746.5" y="244" x="0"/><rect class="section section2" height="28" width="746.5" y="440" x="0"/><rect class="section section3" height="28" width="746.5" y="636" x="0"/><rect class="section section0" height="28" width="746.5" y="804" x="0"/><rect class="section section1" height="28" width="746.5" y="972" x="0"/><rect class="section section2" height="28" width="746.5" y="1140" x="0"/><rect class="section section3" height="28" width="746.5" y="1336" x="0"/><rect class="section section0" height="28" width="746.5" y="76" x="0"/><rect class="section section1" height="28" width="746.5" y="272" x="0"/><rect class="section section2" height="28" width="746.5" y="468" x="0"/><rect class="section section3" height="28" width="746.5" y="664" x="0"/><rect class="section section0" height="28" width="746.5" y="832" x="0"/><rect class="section section1" height="28" width="746.5" y="1000" x="0"/><rect class="section section2" height="28" width="746.5" y="1168" x="0"/><rect class="section section3" height="28" width="746.5" y="1364" x="0"/><rect class="section section0" height="28" width="746.5" y="104" x="0"/><rect class="section section1" height="28" width="746.5" y="300" x="0"/><rect class="section section2" height="28" width="746.5" y="496" x="0"/><rect class="section section2" height="28" width="746.5" y="1196" x="0"/><rect class="section section3" height="28" width="746.5" y="1392" x="0"/><rect class="section section0" height="28" width="746.5" y="132" x="0"/><rect class="section section1" height="28" width="746.5" y="328" x="0"/><rect class="section section2" height="28" width="746.5" y="524" x="0"/><rect class="section section3" height="28" width="746.5" y="692" x="0"/><rect class="section section0" height="28" width="746.5" y="860" x="0"/><rect class="section section1" height="28" width="746.5" y="1028" x="0"/><rect class="section section2" height="28" width="746.5" y="1224" x="0"/><rect class="section section3" height="28" width="746.5" y="1420" x="0"/><rect class="section section0" height="28" width="746.5" y="160" x="0"/><rect class="section section1" height="28" width="746.5" y="356" x="0"/><rect class="section section2" height="28" width="746.5" y="552" x="0"/><rect class="section section3" height="28" width="746.5" y="720" x="0"/><rect class="section section0" height="28" width="746.5" y="888" x="0"/><rect class="section section1" height="28" width="746.5" y="1056" x="0"/><rect class="section section2" height="28" width="746.5" y="1252" x="0"/><rect class="section section3" height="28" width="746.5" y="1448" x="0"/><rect class="section section0" height="28" width="746.5" y="188" x="0"/><rect class="section section1" height="28" width="746.5" y="384" x="0"/><rect class="section section2" height="28" width="746.5" y="580" x="0"/><rect class="section section3" height="28" width="746.5" y="748" x="0"/><rect class="section section0" height="28" width="746.5" y="916" x="0"/><rect class="section section1" height="28" width="746.5" y="1084" x="0"/><rect class="section section2" height="28" width="746.5" y="1280" x="0"/><rect class="section section3" height="28" width="746.5" y="1476" x="0"/><rect class="section section0" height="28" width="746.5" y="216" x="0"/><rect class="section section1" height="28" width="746.5" y="412" x="0"/><rect class="section section2" height="28" width="746.5" y="608" x="0"/><rect class="section section3" height="28" width="746.5" y="776" x="0"/><rect class="section section0" height="28" width="746.5" y="944" x="0"/><rect class="section section1" height="28" width="746.5" y="1112" x="0"/><rect class="section section2" height="28" width="746.5" y="1308" x="0"/><rect class="section section3" height="28" width="746.5" y="1504" x="0"/></g><g><rect class="task task0" transform-origin="120.5px 62px" height="24" width="91" y="50" x="75" ry="3" rx="3" id="mon"/><rect class="task task1" transform-origin="120.5px 258px" height="24" width="91" y="246" x="75" ry="3" rx="3" id="mon"/><rect class="task task2" transform-origin="120.5px 454px" height="24" width="91" y="442" x="75" ry="3" rx="3" id="mon"/><rect class="task task3" transform-origin="120.5px 650px" height="24" width="91" y="638" x="75" ry="3" rx="3" id="mon"/><rect class="task task0" transform-origin="120.5px 818px" height="24" width="91" y="806" x="75" ry="3" rx="3" id="mon"/><rect class="task task1" transform-origin="120.5px 986px" height="24" width="91" y="974" x="75" ry="3" rx="3" id="mon"/><rect class="task task2" transform-origin="120.5px 1154px" height="24" width="91" y="1142" x="75" ry="3" rx="3" id="mon"/><rect class="task task3" transform-origin="120.5px 1350px" height="24" width="91" y="1338" x="75" ry="3" rx="3" id="mon"/><rect class="task task0" transform-origin="211px 90px" height="24" width="90" y="78" x="166" ry="3" rx="3" id="tue"/><rect class="task task1" transform-origin="211px 286px" height="24" width="90" y="274" x="166" ry="3" rx="3" id="tue"/><rect class="task task2" transform-origin="211px 482px" height="24" width="90" y="470" x="166" ry="3" rx="3" id="tue"/><rect class="task task3" transform-origin="256.5px 678px" height="24" width="181" y="666" x="166" ry="3" rx="3" id="tue"/><rect class="task task0" transform-origin="256.5px 846px" height="24" width="181" y="834" x="166" ry="3" rx="3" id="tue"/><rect class="task task1" transform-origin="256.5px 1014px" height="24" width="181" y="1002" x="166" ry="3" rx="3" id="tue"/><rect class="task task2" transform-origin="211px 1182px" height="24" width="90" y="1170" x="166" ry="3" rx="3" id="tue"/><rect class="task task3" transform-origin="211px 1378px" height="24" width="90" y="1366" x="166" ry="3" rx="3" id="tue"/><rect class="task task0" transform-origin="301.5px 118px" height="24" width="91" y="106" x="256" ry="3" rx="3" id="wed"/><rect class="task task1" transform-origin="301.5px 314px" height="24" width="91" y="302" x="256" ry="3" rx="3" id="wed"/><rect class="task task2" transform-origin="301.5px 510px" height="24" width="91" y="498" x="256" ry="3" rx="3" id="wed"/><rect class="task task2" transform-origin="301.5px 1210px" height="24" width="91" y="1198" x="256" ry="3" rx="3" id="wed"/><rect class="task task3" transform-origin="301.5px 1406px" height="24" width="91" y="1394" x="256" ry="3" rx="3" id="wed"/><rect class="task task0" transform-origin="392px 146px" height="24" width="90" y="134" x="347" ry="3" rx="3" id="thu"/><rect class="task task1" transform-origin="392px 342px" height="24" width="90" y="330" x="347" ry="3" rx="3" id="thu"/><rect class="task task2" transform-origin="392px 538px" height="24" width="90" y="526" x="347" ry="3" rx="3" id="thu"/><rect class="task task3" transform-origin="392px 706px" height="24" width="90" y="694" x="347" ry="3" rx="3" id="thu"/><rect class="task task0" transform-origin="392px 874px" height="24" width="90" y="862" x="347" ry="3" rx="3" id="thu"/><rect class="task task1" transform-origin="392px 1042px" height="24" width="90" y="1030" x="347" ry="3" rx="3" id="thu"/><rect class="task task2" transform-origin="392px 1238px" height="24" width="90" y="1226" x="347" ry="3" rx="3" id="thu"/><rect class="task task3" transform-origin="392px 1434px" height="24" width="90" y="1422" x="347" ry="3" rx="3" id="thu"/><rect class="task task0" transform-origin="482.5px 174px" height="24" width="91" y="162" x="437" ry="3" rx="3" id="fri"/><rect class="task task1" transform-origin="482.5px 370px" height="24" width="91" y="358" x="437" ry="3" rx="3" id="fri"/><rect class="task task2" transform-origin="482.5px 566px" height="24" width="91" y="554" x="437" ry="3" rx="3" id="fri"/><rect class="task task3" transform-origin="482.5px 734px" height="24" width="91" y="722" x="437" ry="3" rx="3" id="fri"/><rect class="task task0" transform-origin="482.5px 902px" height="24" width="91" y="890" x="437" ry="3" rx="3" id="fri"/><rect class="task task1" transform-origin="482.5px 1070px" height="24" width="91" y="1058" x="437" ry="3" rx="3" id="fri"/><rect class="task task2" transform-origin="482.5px 1266px" height="24" width="91" y="1254" x="437" ry="3" rx="3" id="fri"/><rect class="task task3" transform-origin="482.5px 1462px" height="24" width="91" y="1450" x="437" ry="3" rx="3" id="fri"/><rect class="task task0" transform-origin="573px 202px" height="24" width="90" y="190" x="528" ry="3" rx="3" id="sat"/><rect class="task task1" transform-origin="573px 398px" height="24" width="90" y="386" x="528" ry="3" rx="3" id="sat"/><rect class="task task2" transform-origin="573px 594px" height="24" width="90" y="582" x="528" ry="3" rx="3" id="sat"/><rect class="task task3" transform-origin="573px 762px" height="24" width="90" y="750" x="528" ry="3" rx="3" id="sat"/><rect class="task task0" transform-origin="573px 930px" height="24" width="90" y="918" x="528" ry="3" rx="3" id="sat"/><rect class="task task1" transform-origin="573px 1098px" height="24" width="90" y="1086" x="528" ry="3" rx="3" id="sat"/><rect class="task task2" transform-origin="573px 1294px" height="24" width="90" y="1282" x="528" ry="3" rx="3" id="sat"/><rect class="task task3" transform-origin="573px 1490px" height="24" width="90" y="1478" x="528" ry="3" rx="3" id="sat"/><rect class="task task0" transform-origin="663.5px 230px" height="24" width="91" y="218" x="618" ry="3" rx="3" id="sun"/><rect class="task task1" transform-origin="663.5px 426px" height="24" width="91" y="414" x="618" ry="3" rx="3" id="sun"/><rect class="task task2" transform-origin="663.5px 622px" height="24" width="91" y="610" x="618" ry="3" rx="3" id="sun"/><rect class="task task3" transform-origin="663.5px 790px" height="24" width="91" y="778" x="618" ry="3" rx="3" id="sun"/><rect class="task task0" transform-origin="663.5px 958px" height="24" width="91" y="946" x="618" ry="3" rx="3" id="sun"/><rect class="task task1" transform-origin="663.5px 1126px" height="24" width="91" y="1114" x="618" ry="3" rx="3" id="sun"/><rect class="task task2" transform-origin="663.5px 1322px" height="24" width="91" y="1310" x="618" ry="3" rx="3" id="sun"/><rect class="task task3" transform-origin="663.5px 1518px" height="24" width="91" y="1506" x="618" ry="3" rx="3" id="sun"/><text class="taskTextOutsideRight taskTextOutside0  width-217.515625" y="67" x="171" font-size="14" id="mon-text">Review metrics &amp; set weekly focus     </text><text class="taskTextOutsideRight taskTextOutside1  width-205.34375" y="263" x="171" font-size="14" id="mon-text">Review weekend event feedback         </text><text class="taskTextOutsideRight taskTextOutside2  width-167.546875" y="459" x="171" font-size="14" id="mon-text">Research vibe coding topic            </text><text class="taskTextOutsideRight taskTextOutside3  width-131.546875" y="655" x="171" font-size="14" id="mon-text">SEO audit / analytics                 </text><text class="taskTextOutsideRight taskTextOutside0  width-148.859375" y="823" x="171" font-size="14" id="mon-text">Review content backlog                </text><text class="taskTextOutsideRight taskTextOutside1  width-201.625" y="991" x="171" font-size="14" id="mon-text">Domain research topic selection       </text><text class="taskTextOutsideRight taskTextOutside2  width-173.171875" y="1159" x="171" font-size="14" id="mon-text">Discord moderation + recap            </text><text class="taskTextOutsideRight taskTextOutside3  width-131.46875" y="1355" x="171" font-size="14" id="mon-text">Pull weekly analytics                 </text><text class="taskTextOutsideRight taskTextOutside0  width-113.953125" y="95" x="261" font-size="14" id="tue-text">Initiative planning                   </text><text class="taskTextOutsideRight taskTextOutside1  width-190.9375" y="291" x="261" font-size="14" id="tue-text">Outreach DMs (seed members)           </text><text class="taskText taskText2  width-84.75" y="487" x="211" font-size="14" id="tue-text">Script writing                        </text><text class="taskText taskText3  width-123.421875" y="683" x="256.5" font-size="14" id="tue-text">Frontend dev sprint                   </text><text class="taskText taskText0  width-82.78125" y="851" x="256.5" font-size="14" id="tue-text">Video editing                         </text><text class="taskText taskText1  width-139.78125" y="1019" x="256.5" font-size="14" id="tue-text">Deep domain research                  </text><text class="taskTextOutsideRight taskTextOutside2  width-144.765625" y="1187" x="261" font-size="14" id="tue-text">Curate discussion topic               </text><text class="taskTextOutsideRight taskTextOutside3  width-113.1875" y="1383" x="261" font-size="14" id="tue-text">Dashboard update                      </text><text class="taskTextOutsideRight taskTextOutside0  width-168.703125" y="123" x="352" font-size="14" id="wed-text">Content review &amp; approval             </text><text class="taskTextOutsideRight taskTextOutside1  width-130.5625" y="319" x="352" font-size="14" id="wed-text">Marketing copy draft                  </text><text class="taskTextOutsideRight taskTextOutside2  width-141.265625" y="515" x="352" font-size="14" id="wed-text">Record / demo session                 </text><text class="taskTextOutsideRight taskTextOutside2  width-148.3125" y="1215" x="352" font-size="14" id="wed-text">Engagement + welcome                  </text><text class="taskTextOutsideRight taskTextOutside3  width-148.3125" y="1411" x="352" font-size="14" id="wed-text">Data analysis deep-dive               </text><text class="taskTextOutsideRight taskTextOutside0  width-139.015625" y="151" x="442" font-size="14" id="thu-text">Mother pipeline check                 </text><text class="taskText taskText1  width-89.890625" y="347" x="392" font-size="14" id="thu-text">Event logistics                       </text><text class="taskTextOutsideRight taskTextOutside2  width-121.640625" y="543" x="442" font-size="14" id="thu-text">Edit review with TJ                   </text><text class="taskTextOutsideRight taskTextOutside3  width-121.375" y="711" x="442" font-size="14" id="thu-text">Reddit engagement                     </text><text class="taskTextOutsideRight taskTextOutside0  width-111.625" y="879" x="442" font-size="14" id="thu-text">Podcast recording                     </text><text class="taskTextOutsideRight taskTextOutside1  width-147" y="1047" x="442" font-size="14" id="thu-text">Critical analysis writing             </text><text class="taskTextOutsideRight taskTextOutside2  width-171.59375" y="1243" x="442" font-size="14" id="thu-text">Mini-event (poll/challenge)           </text><text class="taskTextOutsideRight taskTextOutside3  width-150.046875" y="1439" x="442" font-size="14" id="thu-text">Cross-reference metrics               </text><text class="taskTextOutsideRight taskTextOutside0  width-168.828125" y="179" x="533" font-size="14" id="fri-text">Academy prep / pilot work             </text><text class="taskTextOutsideRight taskTextOutside1  width-141.78125" y="375" x="533" font-size="14" id="fri-text">GTM strategy iteration                </text><text class="taskTextOutsideRight taskTextOutside2  width-137.5" y="571" x="533" font-size="14" id="fri-text">Column writing (tech)                 </text><text class="taskTextOutsideRight taskTextOutside3  width-123.421875" y="739" x="533" font-size="14" id="fri-text">Frontend dev sprint                   </text><text class="taskTextOutsideRight taskTextOutside0  width-153.546875" y="907" x="533" font-size="14" id="fri-text">Community ops planning                </text><text class="taskTextOutsideRight taskTextOutside1  width-138.625" y="1075" x="533" font-size="14" id="fri-text">Devil advocate review                 </text><text class="taskTextOutsideRight taskTextOutside2  width-151.859375" y="1271" x="533" font-size="14" id="fri-text">Share published content               </text><text class="taskTextOutsideRight taskTextOutside3  width-157.109375" y="1467" x="533" font-size="14" id="fri-text">KPI snapshot compilation              </text><text class="taskTextOutsideLeft taskTextOutside0" y="207" x="523" font-size="14" id="sat-text">Weekly meeting prep                   </text><text class="taskTextOutsideLeft taskTextOutside1" y="403" x="523" font-size="14" id="sat-text">Offline event execution               </text><text class="taskTextOutsideRight taskTextOutside2  width-98.828125" y="599" x="623" font-size="14" id="sat-text">Content publish                       </text><text class="taskText taskText3  width-82.75" y="767" x="573" font-size="14" id="sat-text">Deploy + test                         </text><text class="taskTextOutsideRight taskTextOutside0  width-98.828125" y="935" x="623" font-size="14" id="sat-text">Content publish                       </text><text class="taskTextOutsideLeft taskTextOutside1" y="1103" x="523" font-size="14" id="sat-text">Refine + share findings               </text><text class="taskTextOutsideLeft taskTextOutside2" y="1299" x="523" font-size="14" id="sat-text">Weekend engagement                    </text><text class="taskTextOutsideRight taskTextOutside3  width-116.328125" y="1495" x="623" font-size="14" id="sat-text">Finalize KPI report                   </text><text class="taskTextOutsideLeft taskTextOutside0" y="235" x="613" font-size="14" id="sun-text">Weekly meeting + retro                </text><text class="taskTextOutsideLeft taskTextOutside1" y="431" x="613" font-size="14" id="sun-text">Weekly meeting                        </text><text class="taskTextOutsideLeft taskTextOutside2" y="627" x="613" font-size="14" id="sun-text">Weekly meeting                        </text><text class="taskTextOutsideLeft taskTextOutside3" y="795" x="613" font-size="14" id="sun-text">Weekly meeting                        </text><text class="taskTextOutsideLeft taskTextOutside0" y="963" x="613" font-size="14" id="sun-text">Weekly meeting                        </text><text class="taskTextOutsideLeft taskTextOutside1" y="1131" x="613" font-size="14" id="sun-text">Weekly meeting                        </text><text class="taskTextOutsideLeft taskTextOutside2" y="1327" x="613" font-size="14" id="sun-text">Weekly meeting                        </text><text class="taskTextOutsideLeft taskTextOutside3" y="1523" x="613" font-size="14" id="sun-text">Weekly meeting + present data         </text></g><g><text class="sectionTitle sectionTitle0" font-size="14" y="148" x="10" dy="0em"><tspan x="10" alignment-baseline="central">Jay</tspan></text><text class="sectionTitle sectionTitle1" font-size="14" y="344" x="10" dy="0em"><tspan x="10" alignment-baseline="central">Kiwon</tspan></text><text class="sectionTitle sectionTitle2" font-size="14" y="540" x="10" dy="0em"><tspan x="10" alignment-baseline="central">JY</tspan></text><text class="sectionTitle sectionTitle3" font-size="14" y="722" x="10" dy="0em"><tspan x="10" alignment-baseline="central">JeHyeong</tspan></text><text class="sectionTitle sectionTitle0" font-size="14" y="890" x="10" dy="0em"><tspan x="10" alignment-baseline="central">TJ</tspan></text><text class="sectionTitle sectionTitle1" font-size="14" y="1058" x="10" dy="0em"><tspan x="10" alignment-baseline="central">JUNGWOO</tspan></text><text class="sectionTitle sectionTitle2" font-size="14" y="1240" x="10" dy="0em"><tspan x="10" alignment-baseline="central">BH</tspan></text><text class="sectionTitle sectionTitle3" font-size="14" y="1436" x="10" dy="0em"><tspan x="10" alignment-baseline="central">Ryan</tspan></text></g><g class="today"><line class="today" y2="1559" y1="25" x2="-1032" x1="-1032"/></g><text class="titleText" y="25" x="392">Weekly Rhythm — HypeProof Lab Q2 2026</text></svg>