<svg aria-roledescription="pie" role="graphics-document document" style="max-width: 641.844px; background-color: rgb(13, 17, 23);" viewBox="0 0 641.84375 450" xmlns:xlink="http://www.w3.org/1999/xlink" xmlns="http://www.w3.org/2000/svg" width="100%" id="my-svg"><style>#my-svg{font-family:"trebuchet ms",verdana,arial,sans-serif;font-size:16px;fill:#e6edf3;}@keyframes edge-animation-frame{from{stroke-dashoffset:0;}}@keyframes dash{to{stroke-dashoffset:0;}}#my-svg .edge-animation-slow{stroke-dasharray:9,5!important;stroke-dashoffset:900;animation:dash 50s linear infinite;stroke-linecap:round;}#my-svg .edge-animation-fast{stroke-dasharray:9,5!important;stroke-dashoffset:900;animation:dash 20s linear infinite;stroke-linecap:round;}#my-svg .error-icon{fill:#0d1117;}#my-svg .error-text{fill:#f2eee8;stroke:#f2eee8;}#my-svg .edge-thickness-normal{stroke-width:1px;}#my-svg .edge-thickness-thick{stroke-width:3.5px;}#my-svg .edge-pattern-solid{stroke-dasharray:0;}#my-svg .edge-thickness-invisible{stroke-width:0;fill:none;}#my-svg .edge-pattern-dashed{stroke-dasharray:3;}#my-svg .edge-pattern-dotted{stroke-dasharray:2;}#my-svg .marker{fill:#8b949e;stroke:#8b949e;}#my-svg .marker.cross{stroke:#8b949e;}#my-svg svg{font-family:"trebuchet ms",verdana,arial,sans-serif;font-size:16px;}#my-svg p{margin:0;}#my-svg .pieCircle{stroke:black;stroke-width:2px;opacity:0.7;}#my-svg .pieOuterCircle{stroke:black;stroke-width:2px;fill:none;}#my-svg .pieTitleText{text-anchor:middle;font-size:25px;fill:#e6edf3;font-family:"trebuchet ms",verdana,arial,sans-serif;}#my-svg .slice{font-family:"trebuchet ms",verdana,arial,sans-serif;fill:#e6edf3;font-size:17px;}#my-svg .legend text{fill:#e6edf3;font-family:"trebuchet ms",verdana,arial,sans-serif;font-size:17px;}#my-svg :root{--mermaid-font-family:"trebuchet ms",verdana,arial,sans-serif;}</style><g/><g transform="translate(225,225)"><circle class="pieOuterCircle" r="186" cy="0" cx="0"/><path class="pieCircle" fill="#4A90D9" d="M0,-185A185,185,0,0,1,173.484,-64.251L0,0Z"/><path class="pieCircle" fill="#E8734A" d="M173.484,-64.251A185,185,0,0,1,166.094,81.473L0,0Z"/><path class="pieCircle" fill="#50C878" d="M166.094,81.473A185,185,0,0,1,55.382,176.516L0,0Z"/><path class="pieCircle" fill="#9B59B6" d="M55.382,176.516A185,185,0,0,1,-89.781,161.754L0,0Z"/><path class="pieCircle" fill="#F1C40F" d="M-89.781,161.754A185,185,0,0,1,-160.215,92.5L0,0Z"/><path class="pieCircle" fill="#E74C3C" d="M-160.215,92.5A185,185,0,0,1,-184.974,-3.125L0,0Z"/><path class="pieCircle" fill="#1ABC9C" d="M-184.974,-3.125A185,185,0,0,1,-156.999,-97.858L0,0Z"/><path class="pieCircle" fill="#95A5A6" d="M-156.999,-97.858A185,185,0,0,1,-84.267,-164.694L0,0Z"/><path class="pieCircle" fill="#3498DB" d="M-84.267,-164.694A185,185,0,0,1,0,-185L0,0Z"/><text style="text-anchor: middle;" class="slice" transform="translate(79.26346484440244,-113.88092746750958)">19%</text><text style="text-anchor: middle;" class="slice" transform="translate(138.57191536998357,7.027572176371419)">13%</text><text style="text-anchor: middle;" class="slice" transform="translate(90.37793197770833,105.27768952362474)">13%</text><text style="text-anchor: middle;" class="slice" transform="translate(-14.037104675756204,138.03811862062545)">13%</text><text style="text-anchor: middle;" class="slice" transform="translate(-97.27901526002229,98.93611923883182)">9%</text><text style="text-anchor: middle;" class="slice" transform="translate(-134.3207002426858,34.77803885089757)">9%</text><text style="text-anchor: middle;" class="slice" transform="translate(-133.0694706462918,-39.29476405216973)">9%</text><text style="text-anchor: middle;" class="slice" transform="translate(-93.88203417089636,-102.16519054910358)">9%</text><text style="text-anchor: middle;" class="slice" transform="translate(-32.5044714182514,-134.8889240739212)">8%</text><text class="pieTitleText" y="-200" x="0">Weekly Hours by Member (total ~44h team capacity)</text><g transform="translate(216,-99)" class="legend"><rect style="fill: rgb(74, 144, 217); stroke: rgb(74, 144, 217);" height="18" width="18"/><text y="14" x="22">Jay (8-10h)</text></g><g transform="translate(216,-77)" class="legend"><rect style="fill: rgb(232, 115, 74); stroke: rgb(232, 115, 74);" height="18" width="18"/><text y="14" x="22">JY (5-7h)</text></g><g transform="translate(216,-55)" class="legend"><rect style="fill: rgb(80, 200, 120); stroke: rgb(80, 200, 120);" height="18" width="18"/><text y="14" x="22">TJ (5-7h)</text></g><g transform="translate(216,-33)" class="legend"><rect style="fill: rgb(155, 89, 182); stroke: rgb(155, 89, 182);" height="18" width="18"/><text y="14" x="22">JeHyeong (5-7h)</text></g><g transform="translate(216,-11)" class="legend"><rect style="fill: rgb(241, 196, 15); stroke: rgb(241, 196, 15);" height="18" width="18"/><text y="14" x="22">Kiwon (3-5h)</text></g><g transform="translate(216,11)" class="legend"><rect style="fill: rgb(231, 76, 60); stroke: rgb(231, 76, 60);" height="18" width="18"/><text y="14" x="22">BH (3-5h)</text></g><g transform="translate(216,33)" class="legend"><rect style="fill: rgb(26, 188, 156); stroke: rgb(26, 188, 156);" height="18" width="18"/><text y="14" x="22">JUNGWOO (3-5h)</text></g><g transform="translate(216,55)" class="legend"><rect style="fill: rgb(149, 165, 166); stroke: rgb(149, 165, 166);" height="18" width="18"/><text y="14" x="22">Ryan (3-5h)</text></g><g transform="translate(216,77)" class="legend"><rect style="fill: rgb(52, 152, 219); stroke: rgb(52, 152, 219);" height="18" width="18"/><text y="14" x="22">JiWoong (3-4h)</text></g></g></svg>